<svg width="246" height="206" viewBox="0 0 246 206" fill="none" xmlns="http://www.w3.org/2000/svg">
<rect width="86" height="91" transform="translate(80)" fill="white"/>
<g filter="url(#filter0_dddddd_1_317)">
<path d="M80 18.8618C80 8.44472 87.9807 0 97.8255 0H148.175C158.019 0 166 8.44472 166 18.8618V72.1382C166 82.5553 158.019 91 148.175 91H97.8255C87.9807 91 80 82.5553 80 72.1382V18.8618Z" fill="#EBE9E9"/>
</g>
<g clip-path="url(#clip0_1_317)" filter="url(#filter1_i_1_317)">
<path d="M124.408 25.1603C126.566 25.125 128.711 25.1459 130.854 25.125C130.984 27.7959 131.892 30.5164 133.74 32.4048C135.584 34.3402 138.192 35.2261 140.73 35.5258V42.5517C138.351 42.4692 135.962 41.9458 133.804 40.8623C132.864 40.4121 131.989 39.8324 131.132 39.2396C131.12 44.3379 131.151 49.4297 131.101 54.5071C130.972 56.9463 130.211 59.3737 128.871 61.3838C126.714 64.7299 122.971 66.9113 119.126 66.9793C116.767 67.122 114.411 66.4415 112.402 65.1879C109.071 63.1098 106.728 59.3057 106.386 55.2229C106.343 54.3582 106.337 53.4919 106.367 52.6266C106.663 49.3067 108.215 46.1307 110.625 43.9702C113.355 41.4537 117.18 40.2551 120.762 40.9643C120.795 43.5488 120.697 46.1307 120.697 48.7152C119.061 48.1551 117.149 48.3121 115.72 49.3629C114.674 50.092 113.883 51.1648 113.47 52.4159C113.129 53.3005 113.227 54.2833 113.246 55.2229C113.638 58.0861 116.24 60.4926 119.018 60.2322C120.859 60.2113 122.624 59.0806 123.584 57.4252C123.894 56.8455 124.242 56.2527 124.26 55.5709C124.422 52.4499 124.358 49.342 124.378 46.221C124.391 39.1872 124.358 32.1731 124.409 25.1616L124.408 25.1603Z" fill="#485B7C"/>
</g>
<defs>
<filter id="filter0_dddddd_1_317" x="0" y="0" width="246" height="271" filterUnits="userSpaceOnUse" color-interpolation-filters="sRGB">
<feFlood flood-opacity="0" result="BackgroundImageFix"/>
<feColorMatrix in="SourceAlpha" type="matrix" values="0 0 0 0 0 0 0 0 0 0 0 0 0 0 0 0 0 0 127 0" result="hardAlpha"/>
<feOffset dy="2.76726"/>
<feGaussianBlur stdDeviation="1.1069"/>
<feColorMatrix type="matrix" values="0 0 0 0 0 0 0 0 0 0 0 0 0 0 0 0 0 0 0.0196802 0"/>
<feBlend mode="normal" in2="BackgroundImageFix" result="effect1_dropShadow_1_317"/>
<feColorMatrix in="SourceAlpha" type="matrix" values="0 0 0 0 0 0 0 0 0 0 0 0 0 0 0 0 0 0 127 0" result="hardAlpha"/>
<feOffset dy="6.6501"/>
<feGaussianBlur stdDeviation="2.66004"/>
<feColorMatrix type="matrix" values="0 0 0 0 0 0 0 0 0 0 0 0 0 0 0 0 0 0 0.0282725 0"/>
<feBlend mode="normal" in2="effect1_dropShadow_1_317" result="effect2_dropShadow_1_317"/>
<feColorMatrix in="SourceAlpha" type="matrix" values="0 0 0 0 0 0 0 0 0 0 0 0 0 0 0 0 0 0 127 0" result="hardAlpha"/>
<feOffset dy="12.5216"/>
<feGaussianBlur stdDeviation="5.00862"/>
<feColorMatrix type="matrix" values="0 0 0 0 0 0 0 0 0 0 0 0 0 0 0 0 0 0 0.035 0"/>
<feBlend mode="normal" in2="effect2_dropShadow_1_317" result="effect3_dropShadow_1_317"/>
<feColorMatrix in="SourceAlpha" type="matrix" values="0 0 0 0 0 0 0 0 0 0 0 0 0 0 0 0 0 0 127 0" result="hardAlpha"/>
<feOffset dy="22.3363"/>
<feGaussianBlur stdDeviation="8.93452"/>
<feColorMatrix type="matrix" values="0 0 0 0 0 0 0 0 0 0 0 0 0 0 0 0 0 0 0.0417275 0"/>
<feBlend mode="normal" in2="effect3_dropShadow_1_317" result="effect4_dropShadow_1_317"/>
<feColorMatrix in="SourceAlpha" type="matrix" values="0 0 0 0 0 0 0 0 0 0 0 0 0 0 0 0 0 0 127 0" result="hardAlpha"/>
<feOffset dy="41.7776"/>
<feGaussianBlur stdDeviation="16.711"/>
<feColorMatrix type="matrix" values="0 0 0 0 0 0 0 0 0 0 0 0 0 0 0 0 0 0 0.0503198 0"/>
<feBlend mode="normal" in2="effect4_dropShadow_1_317" result="effect5_dropShadow_1_317"/>
<feColorMatrix in="SourceAlpha" type="matrix" values="0 0 0 0 0 0 0 0 0 0 0 0 0 0 0 0 0 0 127 0" result="hardAlpha"/>
<feOffset dy="100"/>
<feGaussianBlur stdDeviation="40"/>
<feColorMatrix type="matrix" values="0 0 0 0 0 0 0 0 0 0 0 0 0 0 0 0 0 0 0.07 0"/>
<feBlend mode="normal" in2="effect5_dropShadow_1_317" result="effect6_dropShadow_1_317"/>
<feBlend mode="normal" in="SourceGraphic" in2="effect6_dropShadow_1_317" result="shape"/>
</filter>
<filter id="filter1_i_1_317" x="103.745" y="25.125" width="39.5745" height="45.8755" filterUnits="userSpaceOnUse" color-interpolation-filters="sRGB">
<feFlood flood-opacity="0" result="BackgroundImageFix"/>
<feBlend mode="normal" in="SourceGraphic" in2="BackgroundImageFix" result="shape"/>
<feColorMatrix in="SourceAlpha" type="matrix" values="0 0 0 0 0 0 0 0 0 0 0 0 0 0 0 0 0 0 127 0" result="hardAlpha"/>
<feOffset dy="4"/>
<feGaussianBlur stdDeviation="7.5"/>
<feComposite in2="hardAlpha" operator="arithmetic" k2="-1" k3="1"/>
<feColorMatrix type="matrix" values="0 0 0 0 0 0 0 0 0 0 0 0 0 0 0 0 0 0 0.2 0"/>
<feBlend mode="normal" in2="shape" result="effect1_innerShadow_1_317"/>
</filter>
<clipPath id="clip0_1_317">
<rect width="39.5744" height="41.8753" fill="white" transform="translate(103.745 25.125)"/>
</clipPath>
</defs>
</svg>
