<svg width="240" height="208" viewBox="0 0 240 208" fill="none" xmlns="http://www.w3.org/2000/svg">
<rect width="86" height="91" transform="translate(80)" fill="white"/>
<g filter="url(#filter0_dddddd_1_282)">
<path d="M80 18.8618C80 8.44472 87.9807 0 97.8255 0H148.175C158.019 0 166 8.44472 166 18.8618V72.1382C166 82.5553 158.019 91 148.175 91H97.8255C87.9807 91 80 82.5553 80 72.1382V18.8618Z" fill="#EBE9E9"/>
</g>
<g filter="url(#filter1_i_1_282)">
<path d="M144.817 32.4615C143.227 33.2072 141.518 33.7111 139.722 33.9389C141.575 32.7654 142.962 30.9185 143.623 28.7427C141.881 29.8372 139.976 30.6075 137.988 31.0203C136.652 29.5104 134.882 28.5096 132.953 28.1733C131.023 27.837 129.043 28.184 127.32 29.1605C125.596 30.1369 124.226 31.6882 123.421 33.5735C122.615 35.4587 122.421 37.5725 122.868 39.5865C119.339 39.3991 115.888 38.4287 112.737 36.7383C109.586 35.048 106.806 32.6754 104.578 29.7747C103.816 31.1655 103.378 32.7779 103.378 34.4952C103.377 36.0411 103.737 37.5634 104.425 38.9269C105.114 40.2904 106.109 41.453 107.324 42.3116C105.915 42.2641 104.537 41.8613 103.305 41.1365V41.2574C103.305 43.4256 104.014 45.5272 105.311 47.2054C106.609 48.8836 108.415 50.0351 110.424 50.4645C109.116 50.8389 107.746 50.894 106.416 50.6258C106.983 52.4914 108.086 54.1229 109.573 55.2917C111.059 56.4605 112.854 57.1082 114.706 57.1441C111.562 59.7551 107.68 61.1714 103.684 61.1652C102.976 61.1654 102.269 61.1217 101.566 61.0342C105.622 63.7939 110.344 65.2585 115.167 65.2528C131.491 65.2528 140.415 50.9463 140.415 38.5384C140.415 38.1353 140.406 37.7282 140.388 37.325C142.124 35.9967 143.623 34.3519 144.813 32.4675L144.817 32.4615Z" fill="#485B7C"/>
</g>
<defs>
<filter id="filter0_dddddd_1_282" x="0" y="0" width="246" height="271" filterUnits="userSpaceOnUse" color-interpolation-filters="sRGB">
<feFlood flood-opacity="0" result="BackgroundImageFix"/>
<feColorMatrix in="SourceAlpha" type="matrix" values="0 0 0 0 0 0 0 0 0 0 0 0 0 0 0 0 0 0 127 0" result="hardAlpha"/>
<feOffset dy="2.76726"/>
<feGaussianBlur stdDeviation="1.1069"/>
<feColorMatrix type="matrix" values="0 0 0 0 0 0 0 0 0 0 0 0 0 0 0 0 0 0 0.0196802 0"/>
<feBlend mode="normal" in2="BackgroundImageFix" result="effect1_dropShadow_1_282"/>
<feColorMatrix in="SourceAlpha" type="matrix" values="0 0 0 0 0 0 0 0 0 0 0 0 0 0 0 0 0 0 127 0" result="hardAlpha"/>
<feOffset dy="6.6501"/>
<feGaussianBlur stdDeviation="2.66004"/>
<feColorMatrix type="matrix" values="0 0 0 0 0 0 0 0 0 0 0 0 0 0 0 0 0 0 0.0282725 0"/>
<feBlend mode="normal" in2="effect1_dropShadow_1_282" result="effect2_dropShadow_1_282"/>
<feColorMatrix in="SourceAlpha" type="matrix" values="0 0 0 0 0 0 0 0 0 0 0 0 0 0 0 0 0 0 127 0" result="hardAlpha"/>
<feOffset dy="12.5216"/>
<feGaussianBlur stdDeviation="5.00862"/>
<feColorMatrix type="matrix" values="0 0 0 0 0 0 0 0 0 0 0 0 0 0 0 0 0 0 0.035 0"/>
<feBlend mode="normal" in2="effect2_dropShadow_1_282" result="effect3_dropShadow_1_282"/>
<feColorMatrix in="SourceAlpha" type="matrix" values="0 0 0 0 0 0 0 0 0 0 0 0 0 0 0 0 0 0 127 0" result="hardAlpha"/>
<feOffset dy="22.3363"/>
<feGaussianBlur stdDeviation="8.93452"/>
<feColorMatrix type="matrix" values="0 0 0 0 0 0 0 0 0 0 0 0 0 0 0 0 0 0 0.0417275 0"/>
<feBlend mode="normal" in2="effect3_dropShadow_1_282" result="effect4_dropShadow_1_282"/>
<feColorMatrix in="SourceAlpha" type="matrix" values="0 0 0 0 0 0 0 0 0 0 0 0 0 0 0 0 0 0 127 0" result="hardAlpha"/>
<feOffset dy="41.7776"/>
<feGaussianBlur stdDeviation="16.711"/>
<feColorMatrix type="matrix" values="0 0 0 0 0 0 0 0 0 0 0 0 0 0 0 0 0 0 0.0503198 0"/>
<feBlend mode="normal" in2="effect4_dropShadow_1_282" result="effect5_dropShadow_1_282"/>
<feColorMatrix in="SourceAlpha" type="matrix" values="0 0 0 0 0 0 0 0 0 0 0 0 0 0 0 0 0 0 127 0" result="hardAlpha"/>
<feOffset dy="100"/>
<feGaussianBlur stdDeviation="40"/>
<feColorMatrix type="matrix" values="0 0 0 0 0 0 0 0 0 0 0 0 0 0 0 0 0 0 0.07 0"/>
<feBlend mode="normal" in2="effect5_dropShadow_1_282" result="effect6_dropShadow_1_282"/>
<feBlend mode="normal" in="SourceGraphic" in2="effect6_dropShadow_1_282" result="shape"/>
</filter>
<filter id="filter1_i_1_282" x="99.7814" y="22.5107" width="45.7158" height="52.3735" filterUnits="userSpaceOnUse" color-interpolation-filters="sRGB">
<feFlood flood-opacity="0" result="BackgroundImageFix"/>
<feBlend mode="normal" in="SourceGraphic" in2="BackgroundImageFix" result="shape"/>
<feColorMatrix in="SourceAlpha" type="matrix" values="0 0 0 0 0 0 0 0 0 0 0 0 0 0 0 0 0 0 127 0" result="hardAlpha"/>
<feOffset dy="4"/>
<feGaussianBlur stdDeviation="7.5"/>
<feComposite in2="hardAlpha" operator="arithmetic" k2="-1" k3="1"/>
<feColorMatrix type="matrix" values="0 0 0 0 0 0 0 0 0 0 0 0 0 0 0 0 0 0 0.2 0"/>
<feBlend mode="normal" in2="shape" result="effect1_innerShadow_1_282"/>
</filter>
</defs>
</svg>
