<svg width="44" height="45" viewBox="0 0 44 45" fill="none" xmlns="http://www.w3.org/2000/svg">
<g clip-path="url(#clip0_138_235)">
<path d="M37.4793 38.3374H30.9599V27.8954C30.9599 25.4055 30.9164 22.2001 27.5692 22.2001C24.1736 22.2001 23.654 24.9131 23.654 27.7142V38.3367H17.1348V16.8639H23.3933V19.7984H23.481C24.1073 18.7031 25.0124 17.8021 26.0998 17.1913C27.1872 16.5804 28.4163 16.2827 29.6561 16.3297C36.2638 16.3297 37.4821 20.7749 37.4821 26.5577L37.4793 38.3374ZM9.77857 13.9289C7.68909 13.9293 5.99491 12.1971 5.99457 10.0602C5.99423 7.92318 7.68771 6.1905 9.77719 6.19015C11.8667 6.18962 13.5609 7.92177 13.5612 10.0587C13.5614 11.085 13.163 12.0692 12.4536 12.795C11.7442 13.5208 10.782 13.9287 9.77857 13.9289ZM13.0384 38.3376H6.51209V16.8639H13.0382V38.3374L13.0384 38.3376ZM40.7295 -0.00209596H3.23615C1.46412 -0.0224866 0.0109141 1.42929 -0.0107422 3.2416V41.747C0.0102266 43.5602 1.46326 45.0134 3.23598 44.9944H40.7295C42.506 45.0169 43.9647 43.5637 43.9893 41.747V3.23861C43.964 1.42279 42.5051 -0.0288147 40.7295 -0.00508424" fill="#0A66C2"/>
</g>
<defs>
<clipPath id="clip0_138_235">
<rect width="44" height="45" fill="white"/>
</clipPath>
</defs>
</svg>
