<?xml version="1.0" standalone="no"?>
<!DOCTYPE svg PUBLIC "-//W3C//DTD SVG 20010904//EN"
 "http://www.w3.org/TR/2001/REC-SVG-20010904/DTD/svg10.dtd">
<svg version="1.0" xmlns="http://www.w3.org/2000/svg"
 width="500.000000pt" height="500.000000pt" viewBox="0 0 500.000000 500.000000"
 preserveAspectRatio="xMidYMid meet">
<metadata>
Created by potrace 1.14, written by Peter Selinger 2001-2017
</metadata>
<g transform="translate(0.000000,500.000000) scale(0.100000,-0.100000)"
fill="#000000" stroke="none">
<path d="M1421 3095 c-83 -19 -193 -74 -253 -125 -207 -178 -267 -575 -128
-850 67 -132 179 -227 325 -276 105 -35 273 -44 385 -20 105 22 204 73 278
140 74 69 121 143 159 251 26 75 28 90 27 245 0 152 -2 171 -27 246 -61 184
-184 309 -364 370 -65 23 -99 27 -208 30 -89 2 -150 -1 -194 -11z m303 -214
c95 -42 169 -143 195 -269 16 -77 14 -247 -4 -317 -49 -188 -158 -281 -330
-279 -158 2 -272 105 -316 284 -17 71 -17 249 0 320 38 154 122 248 248 280
54 13 156 4 207 -19z"/>
<path d="M2310 2460 l0 -630 140 0 140 0 1 478 c1 335 4 465 11 437 5 -22 23
-94 39 -160 16 -66 71 -263 121 -437 l92 -318 152 0 151 0 88 308 c49 169 107
384 131 477 l43 170 0 -477 1 -478 140 0 140 0 0 630 0 630 -218 0 -217 0
-125 -485 c-68 -267 -127 -482 -131 -478 -5 7 -249 942 -249 958 0 3 -101 5
-225 5 l-225 0 0 -630z"/>
</g>
</svg>
