<svg width="74" height="44" viewBox="0 0 74 44" fill="none" xmlns="http://www.w3.org/2000/svg">
<path d="M9.904 38.776C11.44 38.776 12.592 38.6693 13.36 38.456C13.7013 39.6507 13.872 40.824 13.872 41.976C13.872 42.6587 13.5733 43 12.976 43H0.368V7.416L0.112 1.4C1.56267 1.18666 2.992 1.08 4.4 1.08C5.08267 1.08 5.424 1.44267 5.424 2.168V38.776H9.904ZM16.237 37.112V7.544C16.237 5.41066 16.9623 3.74666 18.413 2.552C19.8637 1.35733 21.8477 0.759998 24.365 0.759998C26.8823 0.759998 28.8237 1.31467 30.189 2.424C31.597 3.53333 32.301 5.15466 32.301 7.288V36.856C32.301 38.9893 31.5543 40.6533 30.061 41.848C28.6103 43.0427 26.6263 43.64 24.109 43.64C21.5917 43.64 19.6503 43.0853 18.285 41.976C16.9197 40.8667 16.237 39.2453 16.237 37.112ZM21.293 7.544V36.856C21.293 37.624 21.549 38.2427 22.061 38.712C22.6157 39.1813 23.341 39.416 24.237 39.416C25.133 39.416 25.8583 39.2027 26.413 38.776C26.9677 38.3067 27.245 37.6667 27.245 36.856V7.544C27.245 6.73333 26.9677 6.11467 26.413 5.688C25.8583 5.21866 25.133 4.984 24.237 4.984C23.341 4.984 22.6157 5.21866 22.061 5.688C21.549 6.11467 21.293 6.73333 21.293 7.544ZM47.6855 27.576C46.5335 27.576 45.3815 27.6827 44.2295 27.896C43.8882 26.7013 43.7175 25.528 43.7175 24.376C43.7175 23.6933 44.0162 23.352 44.6135 23.352H52.7415V37.56C52.7415 38.456 52.9122 39.096 53.2535 39.48C53.5948 39.864 54.2135 40.056 55.1095 40.056C55.1522 41.1653 54.8535 42.04 54.2135 42.68C53.6162 43.32 52.7415 43.64 51.5895 43.64C49.7975 43.64 48.6455 42.9787 48.1335 41.656C46.9388 42.9787 45.2962 43.64 43.2055 43.64C38.8535 43.64 36.6775 41.592 36.6775 37.496V7.544C36.6775 5.41066 37.4028 3.74666 38.8535 2.552C40.3042 1.35733 42.2455 0.759998 44.6775 0.759998C47.1522 0.759998 49.1148 1.31467 50.5655 2.424C52.0162 3.49067 52.7415 4.89867 52.7415 6.648V13.944C52.7415 14.712 52.1868 15.2453 51.0775 15.544C50.4802 15.7147 49.8828 15.8 49.2855 15.8C48.6882 15.8 48.0908 15.736 47.4935 15.608C47.6215 14.584 47.6855 13.496 47.6855 12.344V7.544C47.6855 6.73333 47.4082 6.11467 46.8535 5.688C46.2988 5.21866 45.5735 4.984 44.6775 4.984C43.7815 4.984 43.0562 5.21866 42.5015 5.688C41.9895 6.11467 41.7335 6.73333 41.7335 7.544V37.112C41.7335 38.648 42.5015 39.416 44.0375 39.416C45.6162 39.416 46.8322 38.6693 47.6855 37.176V27.576ZM57.487 37.112V7.544C57.487 5.41066 58.2123 3.74666 59.663 2.552C61.1137 1.35733 63.0977 0.759998 65.615 0.759998C68.1323 0.759998 70.0737 1.31467 71.439 2.424C72.847 3.53333 73.551 5.15466 73.551 7.288V36.856C73.551 38.9893 72.8043 40.6533 71.311 41.848C69.8603 43.0427 67.8763 43.64 65.359 43.64C62.8417 43.64 60.9003 43.0853 59.535 41.976C58.1697 40.8667 57.487 39.2453 57.487 37.112ZM62.543 7.544V36.856C62.543 37.624 62.799 38.2427 63.311 38.712C63.8657 39.1813 64.591 39.416 65.487 39.416C66.383 39.416 67.1083 39.2027 67.663 38.776C68.2177 38.3067 68.495 37.6667 68.495 36.856V7.544C68.495 6.73333 68.2177 6.11467 67.663 5.688C67.1083 5.21866 66.383 4.984 65.487 4.984C64.591 4.984 63.8657 5.21866 63.311 5.688C62.799 6.11467 62.543 6.73333 62.543 7.544Z" fill="black"/>
</svg>
